<svg width="12" height="12" xmlns="http://www.w3.org/2000/svg"><path d="M10.77 7.104a.879.879 0 0 1 1.148.295c.164.37.082.812-.328 1.033l-5.163 2.731c-.164.074-.246.074-.41.074-.164 0-.246 0-.41-.074L.443 8.433C.033 8.21-.13 7.767.116 7.398a.879.879 0 0 1 1.147-.295l4.754 2.51 4.754-2.51zM.444 4.948c-.246-.073-.41-.369-.327-.664 0-.295.163-.516.41-.664L5.69 1.11c.164-.147.492-.147.738 0l5.163 2.51c.246.148.41.369.41.664 0 .295-.164.517-.41.664L6.427 7.68c-.164.074-.246.074-.41.074-.164 0-.246 0-.41-.074L.443 4.949z" fill="#999"/></svg>