<svg width="16" height="16" xmlns="http://www.w3.org/2000/svg"><path d="M12.523 8.517a3.65 3.65 0 0 0-3.854 6.2C8.04 15.51 7.6 16 7.6 16S2 9.76 2 5.6C2 2.48 4.48 0 7.6 0c3.12 0 5.6 2.48 5.6 5.6 0 .903-.264 1.903-.677 2.917zM7.6 7.6c-1.12 0-2-.88-2-2s.88-2 2-2 2 .88 2 2-.88 2-2 2zm5.785 4.452a.44.44 0 0 1 .574.148c.082.184.041.406-.164.516l-2.582 1.366c-.082.036-.123.036-.205.036-.082 0-.123 0-.205-.036l-2.581-1.366c-.205-.11-.287-.332-.164-.516a.44.44 0 0 1 .573-.148l2.377 1.255 2.377-1.255zm-5.163-1.078c-.123-.037-.205-.184-.164-.332 0-.148.082-.258.205-.332l2.581-1.255c.082-.073.246-.073.37 0l2.581 1.255c.123.074.205.184.205.332 0 .148-.082.258-.205.332l-2.582 1.365a.404.404 0 0 1-.205.037c-.082 0-.123 0-.205-.037l-2.581-1.365z" fill="#999"/></svg>