<svg width="19" height="16" xmlns="http://www.w3.org/2000/svg"><g fill="#FFF" fill-rule="evenodd"><path d="M0 0h14.75L8.485 8v6.81L6.222 16V8z"/><path d="M17.994 10.422c0-.12.04-.241.04-.402 0-.16 0-.281-.04-.402l.857-.683c.081-.08.081-.161.04-.242l-.816-1.407c-.04-.04-.122-.08-.244-.04l-1.02.402c-.205-.16-.45-.281-.694-.402l-.163-1.045c.04-.12-.082-.201-.164-.201h-1.632c-.082 0-.204.08-.204.16l-.163 1.086c-.245.08-.449.241-.694.402l-.98-.402c-.122-.04-.203 0-.285.08l-.816 1.408c-.04.04 0 .16.082.24l.857.644c0 .12-.041.241-.041.402 0 .16 0 .282.04.402l-.856.684c-.082.08-.082.16-.041.24l.816 1.408c.04.04.122.08.245.04l1.02-.402c.204.16.449.281.694.402l.163 1.045c0 .08.081.161.204.161h1.632c.082 0 .204-.08.204-.16l.163-1.046c.245-.12.49-.241.694-.402l1.02.402c.082.04.204 0 .245-.08l.816-1.407c.041-.08.041-.201-.04-.242l-.94-.643zm-3.02 1.005c-.775 0-1.428-.643-1.428-1.407s.653-1.407 1.428-1.407c.776 0 1.428.643 1.428 1.407s-.652 1.407-1.428 1.407z"/></g></svg>