<svg width="15" height="16" xmlns="http://www.w3.org/2000/svg"><path d="M14.28 8.925c.314-.473.47-.994.47-1.564 0-.659-.243-1.231-.729-1.718-.486-.486-1.062-.73-1.727-.73h-1.69c.307-.633.461-1.247.461-1.842 0-.749-.112-1.343-.336-1.785A2.11 2.11 0 0 0 9.75.312 3.278 3.278 0 0 0 8.301 0c-.326 0-.614.118-.864.355a2.308 2.308 0 0 0-.595 1.037c-.121.422-.219.827-.292 1.214-.074.387-.187.66-.34.82-.315.34-.657.749-1.028 1.229-.646.838-1.084 1.334-1.315 1.487h-2.63c-.338 0-.628.12-.868.36s-.36.53-.36.869v6.142c0 .339.12.628.36.868s.53.36.869.36h2.764c.14 0 .582.128 1.324.384.787.275 1.48.485 2.078.629a7.744 7.744 0 0 0 1.818.216h1.238c.902 0 1.629-.258 2.179-.773.55-.515.822-1.217.816-2.107a2.701 2.701 0 0 0 .575-1.708c0-.14-.01-.278-.028-.413a2.753 2.753 0 0 0 .278-2.044zM2.284 13.33a.59.59 0 0 1-.432.183.59.59 0 0 1-.432-.183.59.59 0 0 1-.182-.432c0-.166.06-.31.182-.431a.59.59 0 0 1 .432-.183.59.59 0 0 1 .432.183.59.59 0 0 1 .182.431.59.59 0 0 1-.182.432zm11.032-5.18c-.138.294-.309.444-.514.45.096.11.176.261.24.456.064.196.096.373.096.533 0 .441-.17.822-.508 1.142.115.204.172.425.172.662 0 .237-.056.472-.168.705a1.07 1.07 0 0 1-.455.504c.032.192.047.371.047.537 0 1.069-.614 1.603-1.842 1.603H9.223c-.838 0-1.932-.233-3.282-.7a5.391 5.391 0 0 0-1.32-.437 4.342 4.342 0 0 0-.317-.063 1.935 1.935 0 0 0-.302-.028h-.307V7.37h.307a.825.825 0 0 0 .34-.086c.125-.058.253-.144.385-.26.13-.115.254-.228.369-.34a5.46 5.46 0 0 0 .384-.422 19.005 19.005 0 0 0 .633-.802c.122-.16.195-.256.221-.288.352-.435.598-.726.739-.873.262-.275.453-.625.57-1.05.12-.426.217-.828.293-1.205.077-.378.199-.65.365-.816.614 0 1.024.15 1.229.45.204.302.307.765.307 1.392 0 .378-.154.891-.461 1.54-.307.65-.46 1.16-.46 1.531h3.377c.32 0 .605.123.855.37.25.246.374.532.374.859 0 .224-.069.483-.206.778z" fill="#282828"/></svg>