<?xml version="1.0" encoding="UTF-8"?>
<svg width="16px" height="16px" viewBox="0 0 16 16" version="1.1" xmlns="http://www.w3.org/2000/svg" xmlns:xlink="http://www.w3.org/1999/xlink">
    <!-- Generator: Sketch 51.1 (57501) - http://www.bohemiancoding.com/sketch -->
    <title>search_hover</title>
    <desc>Created with Sketch.</desc>
    <defs></defs>
    <g id="layerlist" stroke="none" stroke-width="1" fill="none" fill-rule="evenodd">
        <g id="icons" transform="translate(-183.000000, -131.000000)" fill="#000000">
            <path d="M195.077419,142.354839 L194.767742,142.045161 C195.8,140.909677 196.419355,139.36129 196.419355,137.709677 C196.419355,133.993548 193.425806,131 189.709677,131 C185.993548,131 183,133.993548 183,137.709677 C183,141.425806 185.993548,144.419355 189.709677,144.419355 C191.36129,144.419355 192.909677,143.8 194.045161,142.767742 L194.354839,143.077419 L194.354839,143.903226 L197.451613,147 L199,145.451613 L195.903226,142.354839 L195.077419,142.354839 Z M189.709677,142.354839 C187.129032,142.354839 185.064516,140.290323 185.064516,137.709677 C185.064516,135.129032 187.129032,133.064516 189.709677,133.064516 C192.290323,133.064516 194.354839,135.129032 194.354839,137.709677 C194.354839,140.290323 192.290323,142.354839 189.709677,142.354839 L189.709677,142.354839 Z" id="search_hover"></path>
        </g>
    </g>
</svg>