<?xml version="1.0" encoding="UTF-8"?>
<svg width="16px" height="16px" viewBox="0 0 16 16" version="1.1" xmlns="http://www.w3.org/2000/svg" xmlns:xlink="http://www.w3.org/1999/xlink">
    <!-- Generator: Sketch 51.1 (57501) - http://www.bohemiancoding.com/sketch -->
    <title>search_normal</title>
    <desc>Created with Sketch.</desc>
    <defs></defs>
    <g id="layerlist" stroke="none" stroke-width="1" fill="none" fill-rule="evenodd" fill-opacity="0.5">
        <g id="icons" transform="translate(-183.000000, -64.000000)" fill="#000000">
            <path d="M195.077419,75.3548387 L194.767742,75.0451613 C195.8,73.9096774 196.419355,72.3612903 196.419355,70.7096774 C196.419355,66.9935484 193.425806,64 189.709677,64 C185.993548,64 183,66.9935484 183,70.7096774 C183,74.4258065 185.993548,77.4193548 189.709677,77.4193548 C191.36129,77.4193548 192.909677,76.8 194.045161,75.7677419 L194.354839,76.0774194 L194.354839,76.9032258 L197.451613,80 L199,78.4516129 L195.903226,75.3548387 L195.077419,75.3548387 Z M189.709677,75.3548387 C187.129032,75.3548387 185.064516,73.2903226 185.064516,70.7096774 C185.064516,68.1290323 187.129032,66.0645161 189.709677,66.0645161 C192.290323,66.0645161 194.354839,68.1290323 194.354839,70.7096774 C194.354839,73.2903226 192.290323,75.3548387 189.709677,75.3548387 L189.709677,75.3548387 Z" id="search_normal"></path>
        </g>
    </g>
</svg>