<svg width="120" height="100" xmlns="http://www.w3.org/2000/svg"><g fill="none" fill-rule="evenodd"><path fill="#FFF" d="M0 0h120v100H0z"/><path d="M37.015 65.85A24.919 24.919 0 0 1 35 56c0-13.807 11.193-25 25-25s25 11.193 25 25c0 3.498-.718 6.828-2.015 9.85l-7.356-3.152A16.945 16.945 0 0 0 77 56c0-9.389-7.611-17-17-17s-17 7.611-17 17c0 2.378.488 4.643 1.37 6.698l-7.355 3.153z" fill="#DEDEDE"/><path d="M37.015 65.85A24.919 24.919 0 0 1 35 56c0-13.807 11.193-25 25-25 7.8 0 14.765 3.572 19.35 9.169l-6.192 5.066A16.966 16.966 0 0 0 60 39c-9.389 0-17 7.611-17 17 0 2.378.488 4.643 1.37 6.698l-7.355 3.153z" fill="#24B5CC"/><path fill="#B3B3B3" d="M59.095 55.442l12.134-8.876L60.38 56.974l-2.175.52z"/><path d="M25 78h70v2H25v-2zm15 7h40v2H40v-2zm2-72h6v6h-6v-6zm10 0h6v6h-6v-6zm10 0h6v6h-6v-6zm10 0h6v6h-6v-6z" fill="#DEDEDE"/></g></svg>