<svg width="120" height="100" xmlns="http://www.w3.org/2000/svg"><g fill="none" fill-rule="evenodd"><path fill="#FFF" d="M0 0h120v100H0z"/><path fill="#B3B3B3" d="M36 67h47v1H36z"/><path fill="#24B5CC" d="M39 52h4v15h-4zm8-5h4v20h-4zm8 10h4v10h-4zm8-19h4v29h-4zm8 5h4v24h-4zm8 5h4v19h-4z"/><path fill="#F6A623" d="M39 28h4v24h-4zm8 0h4v19h-4zm8 0h4v29h-4zm8 0h4v10h-4zm8 0h4v15h-4zm8 0h4v20h-4z"/><path fill="#B3B3B3" d="M36 28h1v40h-1z"/><path d="M25 78h70v2H25v-2zm15 7h40v2H40v-2zm2-72h6v6h-6v-6zm10 0h6v6h-6v-6zm10 0h6v6h-6v-6zm10 0h6v6h-6v-6z" fill="#DEDEDE"/></g></svg>