<svg width="120" height="100" xmlns="http://www.w3.org/2000/svg"><g fill="none" fill-rule="evenodd"><path fill="#FFF" d="M0 0h120v100H0z"/><path d="M25 78h70v2H25v-2zm15 7h40v2H40v-2zm2-72h6v6h-6v-6zm10 0h6v6h-6v-6zm10 0h6v6h-6v-6zm10 0h6v6h-6v-6z" fill="#DEDEDE"/><path fill="#B3B3B3" d="M27 65h66v1H27z"/><path fill="#B3B3B3" d="M27 30h1v36h-1z"/><path fill="#F6A623" opacity=".5" d="M31 45l17 13 18-20 24 21v4H31z"/><path fill="#24B5CC" opacity=".5" d="M31 54l8 6 16-18 14 12 21-22v31H31z"/><g transform="translate(29 36)"><path stroke="#F6A623" stroke-linecap="round" stroke-linejoin="round" d="M2 9l17 13L37 2l24 21"/><circle fill="#F6A623" cx="2" cy="9" r="2"/><circle fill="#F6A623" cx="19" cy="22" r="2"/><circle fill="#F6A623" cx="37" cy="2" r="2"/><circle fill="#F6A623" cx="61" cy="23" r="2"/></g><g transform="translate(29 30)"><path stroke="#24B5CC" stroke-linecap="round" stroke-linejoin="round" d="M2 24l8 6 16-18 14 12L61 2"/><circle fill="#24B5CC" cx="26" cy="12" r="2"/><circle fill="#24B5CC" cx="40" cy="24" r="2"/><circle fill="#24B5CC" cx="10" cy="30" r="2"/><circle fill="#24B5CC" cx="2" cy="24" r="2"/><circle fill="#24B5CC" cx="61" cy="2" r="2"/></g></g></svg>