<svg width="120" height="100" xmlns="http://www.w3.org/2000/svg"><g fill="none" fill-rule="evenodd"><path fill="#FFF" d="M0 0h120v100H0z"/><path d="M25 78h70v2H25v-2zm15 7h40v2H40v-2zm2-72h6v6h-6v-6zm10 0h6v6h-6v-6zm10 0h6v6h-6v-6zm10 0h6v6h-6v-6z" fill="#DEDEDE"/><path fill="#B3B3B3" d="M27 65h66v1H27z"/><path fill="#B3B3B3" d="M27 30h1v36h-1z"/><path fill="#91DAE5" d="M31 41l8 6 16-12 14 8 21-9v29H31z"/><path fill="#FAD291" d="M31 56l17-9 26 6 16-8v18H31z"/><g transform="translate(29 43)"><path stroke="#F6A623" stroke-linecap="round" stroke-linejoin="round" d="M2 13l17-9 26 6 16-8"/><circle fill="#F6A623" cx="2" cy="13" r="2"/><circle fill="#F6A623" cx="19" cy="4" r="2"/><circle fill="#F6A623" cx="45" cy="10" r="2"/><circle fill="#F6A623" cx="61" cy="2" r="2"/></g><g transform="translate(29 32)"><path stroke="#24B5CC" stroke-linecap="round" stroke-linejoin="round" d="M2 9l8 6L26 3l14 8 21-9"/><circle fill="#24B5CC" cx="26" cy="3" r="2"/><circle fill="#24B5CC" cx="40" cy="11" r="2"/><circle fill="#24B5CC" cx="10" cy="15" r="2"/><circle fill="#24B5CC" cx="2" cy="9" r="2"/><circle fill="#24B5CC" cx="61" cy="2" r="2"/></g></g></svg>