<svg width="120" height="100" xmlns="http://www.w3.org/2000/svg"><g fill="none" fill-rule="evenodd"><path fill="#FFF" d="M0 0h120v100H0z"/><path d="M45.412 66.694V58.33l-2.057 1.64L42 58.057l3.63-2.75h2.399v11.388h-2.617zm10.608 0v-2.252l4.3-4.021c.27-.268.487-.542.654-.82.166-.28.249-.59.249-.933 0-.408-.125-.738-.374-.99-.25-.252-.582-.378-.997-.378-.436 0-.792.158-1.067.475-.275.316-.439.732-.49 1.246l-2.509-.353c.063-.58.216-1.094.46-1.545.244-.45.553-.833.927-1.15a3.968 3.968 0 0 1 1.285-.724A4.685 4.685 0 0 1 59.992 55c.51 0 1.002.07 1.48.21.478.139.904.353 1.277.643.374.29.673.654.896 1.093.223.44.335.955.335 1.545 0 .407-.052.774-.156 1.101a3.72 3.72 0 0 1-.428.91c-.182.278-.39.538-.623.78-.234.24-.475.48-.725.715l-2.554 2.349h4.502v2.348H56.02zM78 63.381c0 .622-.122 1.16-.366 1.616a3.368 3.368 0 0 1-.958 1.126 4.162 4.162 0 0 1-1.332.66 5.312 5.312 0 0 1-1.503.217 5.99 5.99 0 0 1-1.457-.177 4.512 4.512 0 0 1-1.293-.539 3.791 3.791 0 0 1-1.02-.933 3.935 3.935 0 0 1-.654-1.375l2.43-.66c.104.376.317.705.639.99.321.284.732.426 1.23.426.187 0 .377-.027.569-.08.192-.054.363-.137.514-.25.15-.112.275-.26.374-.442.098-.183.148-.408.148-.676 0-.29-.065-.53-.195-.724a1.393 1.393 0 0 0-.514-.458 2.469 2.469 0 0 0-.725-.241 4.596 4.596 0 0 0-.81-.073h-.7V59.81h.763c.249 0 .488-.02.716-.057.229-.037.434-.107.616-.209.181-.102.327-.238.436-.41.109-.172.163-.397.163-.676 0-.407-.14-.718-.42-.933a1.547 1.547 0 0 0-.966-.321c-.374 0-.698.115-.974.346-.275.23-.454.538-.537.925l-2.43-.58c.135-.482.337-.903.607-1.262.27-.36.59-.66.958-.901a4.353 4.353 0 0 1 1.208-.547 4.9 4.9 0 0 1 1.34-.185c.487 0 .963.064 1.425.193a3.77 3.77 0 0 1 1.238.595c.364.268.657.603.88 1.006.224.402.335.876.335 1.423 0 .633-.174 1.166-.522 1.6a2.535 2.535 0 0 1-1.332.877v.049a2.787 2.787 0 0 1 1.527.957A2.627 2.627 0 0 1 78 63.38z" fill="#24B5CC"/><path d="M60 31c-3.85 0-7 3.15-7 7s3.15 7 7 7 7-3.15 7-7-3.15-7-7-7zm-.7 12.53c-2.73-.35-4.9-2.73-4.9-5.53 0-.42.07-.84.14-1.26l3.36 3.36v.7c0 .77.63 1.4 1.4 1.4v1.33zm4.83-1.75c-.21-.56-.7-.98-1.33-.98h-.7v-2.1c0-.42-.28-.7-.7-.7h-4.2v-1.4h1.4c.42 0 .7-.28.7-.7v-1.4h1.4c.77 0 1.4-.63 1.4-1.4v-.28c2.03.84 3.5 2.87 3.5 5.18 0 1.47-.56 2.8-1.47 3.78z" fill="#B3B3B3"/><path d="M42 15h6v6h-6v-6zm10 0h6v6h-6v-6zm10 0h6v6h-6v-6zm10 0h6v6h-6v-6z" fill="#DEDEDE"/><path fill="#F6A623" d="M88 64h3v-2.77h2L89.5 58 86 61.23h2z"/><path d="M25 77h70v2H25v-2zm15 7h40v2H40v-2z" fill="#DEDEDE"/></g></svg>