<svg width="120" height="100" xmlns="http://www.w3.org/2000/svg"><g fill="none" fill-rule="evenodd"><path fill="#FFF" d="M0 0h120v100H0z"/><path fill="#B3B3B3" d="M30 63h60v1H30z"/><path fill="#24B5CC" d="M31 33h30v4H31zm0 8h40v4H31zm0 8h18v4H31zm0 8h25v4H31z"/><path fill="#F6A623" d="M61 33h17v4H61zm10 8h19v4H71zm-22 8h18v4H49zm6 8h18v4H55z"/><path fill="#B3B3B3" d="M30 33h1v31h-1z"/><path d="M25 78h70v2H25v-2zm15 7h40v2H40v-2zm2-72h6v6h-6v-6zm10 0h6v6h-6v-6zm10 0h6v6h-6v-6zm10 0h6v6h-6v-6z" fill="#DEDEDE"/></g></svg>