<svg width="16" height="16" xmlns="http://www.w3.org/2000/svg"><path d="M13.711 8.8c0-.24.08-.48.08-.8 0-.32 0-.56-.08-.8l1.68-1.36c.16-.16.16-.32.08-.48l-1.6-2.8c-.08-.08-.24-.16-.48-.08l-2 .8c-.4-.32-.88-.56-1.36-.8L9.711.4c.08-.24-.16-.4-.32-.4h-3.2c-.16 0-.4.16-.4.32l-.32 2.16c-.48.16-.88.48-1.36.8l-1.92-.8c-.24-.08-.4 0-.56.16l-1.6 2.8c-.08.08 0 .32.16.48l1.68 1.28c0 .24-.08.48-.08.8 0 .32 0 .56.08.8l-1.68 1.36c-.16.16-.16.32-.08.48l1.6 2.8c.08.08.24.16.48.08l2-.8c.4.32.88.56 1.36.8l.32 2.08c0 .16.16.32.4.32h3.2c.16 0 .4-.16.4-.32l.32-2.08c.48-.24.96-.48 1.36-.8l2 .8c.16.08.4 0 .48-.16l1.6-2.8c.08-.16.08-.4-.08-.48l-1.84-1.28zm-5.92 2c-1.52 0-2.8-1.28-2.8-2.8 0-1.52 1.28-2.8 2.8-2.8 1.52 0 2.8 1.28 2.8 2.8 0 1.52-1.28 2.8-2.8 2.8z" fill-rule="evenodd"/></svg>