<svg width="17" height="15" xmlns="http://www.w3.org/2000/svg"><g fill="none" fill-rule="evenodd"><path d="M8.027 12H1.2C.54 12 0 11.325 0 10.5v-9C0 .675.54 0 1.2 0h3.6L6 1.5h4.8c.66 0 1.2.675 1.2 1.5v1.062A5.978 5.978 0 0 0 11.107 4c-2.462 0-2.24 2.019-2.24 2.019s-.147 1.601 2.06 1.963c-.012.04 0 .905 0 .905s-.72-.133-1.445.036a1.2 1.2 0 0 0-1.505-1.044l-2.38-2.38a1.8 1.8 0 0 0-2.4-2.4L4.61 4.51l-.849.849L2.35 3.947a1.8 1.8 0 0 0 2.4 2.401l2.38 2.38a1.2 1.2 0 0 0 .94 1.49c-.045.178-.069.38-.069.605 0 .506.007.885.027 1.177zm.852-2.851a.599.599 0 0 0-1.015-.535.599.599 0 0 0 .464 1.024c.15-.214.34-.372.55-.49z" fill="#000"/><g stroke="#000" stroke-width="2" stroke-linecap="round" stroke-linejoin="round"><path d="M16 11l-3 3-3-3"/><path d="M13 12V7.8c0-.994-.895-1.8-2-1.8"/></g></g></svg>