<svg width="16" height="16" xmlns="http://www.w3.org/2000/svg"><path d="M9 1.003A.996.996 0 0 1 10.003 0h4.994A.996.996 0 0 1 16 1.003v4.994A.996.996 0 0 1 14.997 7h-4.994A.996.996 0 0 1 9 5.997V1.003zm0 9A.996.996 0 0 1 10.003 9h4.994A.996.996 0 0 1 16 10.003v4.994A.996.996 0 0 1 14.997 16h-4.994A.996.996 0 0 1 9 14.997v-4.994zm-9-9A.996.996 0 0 1 1.003 0h4.994A.996.996 0 0 1 7 1.003v4.994A.996.996 0 0 1 5.997 7H1.003A.996.996 0 0 1 0 5.997V1.003zm0 9A.996.996 0 0 1 1.003 9h4.994A.996.996 0 0 1 7 10.003v4.994A.996.996 0 0 1 5.997 16H1.003A.996.996 0 0 1 0 14.997v-4.994z" fill="#666" fill-rule="evenodd"/></svg>