<svg width="15" height="16" xmlns="http://www.w3.org/2000/svg"><path d="M.476 7.075c-.313.473-.47.994-.47 1.564 0 .659.243 1.231.73 1.718.486.486 1.061.73 1.727.73h1.689c-.307.633-.461 1.247-.461 1.842 0 .749.112 1.343.336 1.785.224.442.55.766.98.974.428.208.91.312 1.448.312.327 0 .614-.118.864-.355.275-.269.473-.614.595-1.037.121-.422.219-.827.293-1.214.073-.387.187-.66.34-.82a18.5 18.5 0 0 0 1.027-1.229c.646-.838 1.085-1.334 1.315-1.487h2.63c.338 0 .628-.12.868-.36s.36-.53.36-.869V2.487c0-.339-.12-.628-.36-.868s-.53-.36-.869-.36h-2.763c-.141 0-.582-.128-1.325-.384A22.056 22.056 0 0 0 7.353.246 7.744 7.744 0 0 0 5.533.03H4.297c-.902 0-1.628.258-2.178.773S1.295 2.02 1.302 2.91a2.701 2.701 0 0 0-.576 1.708c0 .14.01.278.029.413a2.754 2.754 0 0 0-.279 2.044zM12.472 2.67a.59.59 0 0 1 .432-.183.59.59 0 0 1 .432.183.59.59 0 0 1 .182.432.59.59 0 0 1-.182.431.59.59 0 0 1-.432.183.59.59 0 0 1-.432-.183.59.59 0 0 1-.182-.431c0-.167.06-.311.182-.432zM1.441 7.85c.137-.294.308-.444.513-.45a1.296 1.296 0 0 1-.24-.456 1.726 1.726 0 0 1-.096-.533c0-.441.17-.822.509-1.142a1.327 1.327 0 0 1-.173-.662c0-.237.056-.472.168-.705a1.07 1.07 0 0 1 .456-.504 3.282 3.282 0 0 1-.048-.537c0-1.069.614-1.603 1.843-1.603h1.16c.839 0 1.933.233 3.283.7a70.959 70.959 0 0 0 .62.22c.072.027.184.064.335.112a4.342 4.342 0 0 0 .681.168c.118.019.22.028.302.028h.307V8.63h-.307a.825.825 0 0 0-.34.086 1.622 1.622 0 0 0-.384.26 9.902 9.902 0 0 0-.37.34 5.46 5.46 0 0 0-.384.422 19.005 19.005 0 0 0-.633.802l-.22.288a16.69 16.69 0 0 1-.74.873 2.437 2.437 0 0 0-.57 1.05c-.12.426-.217.828-.293 1.205-.077.378-.199.65-.365.816-.614 0-1.024-.15-1.228-.45-.205-.302-.307-.765-.307-1.392 0-.378.153-.891.46-1.54.307-.65.46-1.16.46-1.531H2.464c-.32 0-.605-.123-.854-.37a1.17 1.17 0 0 1-.375-.859c0-.224.069-.483.207-.778z" fill="#282828"/></svg>