<svg width="120" height="100" xmlns="http://www.w3.org/2000/svg"><g fill="none" fill-rule="evenodd"><path fill="#FFF" d="M0 0h120v100H0z"/><g transform="translate(38 28)"><ellipse fill="#24B5CC" cx="19.833" cy="19.842" rx="19.833" ry="19.842"/><path d="M17.224 39.514C7.504 38.236 0 29.916 0 19.842c0-2.076.319-4.078.91-5.96l19.478 6.135-3.164 19.497z" fill="#E5E5E5"/><path d="M.899 13.919C2.962 7.309 8.387 2.186 15.172.55l5.27 19.459-19.543-6.09z" fill="#F6A623"/><path d="M15.18.55C16.671.19 18.23 0 19.832 0c7.966 0 14.836 4.699 17.99 11.478l-17.37 8.564L15.18.55z" fill="#D4D4D4"/><path d="M37.871 11.583a19.776 19.776 0 0 1 1.795 8.354l-19.25.01 17.455-8.364z" fill="#B3B3B3"/></g><path d="M58.023 47.646L52.89 28.477l.595-.16 5.182 19.348 17.153-8.641.277.55-16.5 8.311h18.332v.615H58.683l-3.116 19.386-.607-.098 3.115-19.385-.057-.114-19.392-6.112.185-.587 19.212 6.056z" fill="#FFF" fill-rule="nonzero"/><path d="M25 78h70v2H25v-2zm15 7h40v2H40v-2zm2-72h6v6h-6v-6zm10 0h6v6h-6v-6zm10 0h6v6h-6v-6zm10 0h6v6h-6v-6z" fill="#DEDEDE"/></g></svg>