<svg width="16" height="16" xmlns="http://www.w3.org/2000/svg"><g fill="none" fill-rule="evenodd"><path d="M8 6C3.582 6 0 4.657 0 3.002 0 1.345 3.582 0 8 0s8 1.345 8 3.002C16 4.657 12.418 6 8 6zm0-1.5c3.314 0 6-.672 6-1.499C14 2.172 11.314 1.5 8 1.5s-6 .672-6 1.501C2 3.828 4.686 4.5 8 4.5z" fill="#999" fill-rule="nonzero"/><path d="M6.667 8.97C3.285 8.662.8 7.628.8 6.4m4.267 6.09C2.528 12.044.8 11.158.8 10.134V2.667M15.2 3v2.667" stroke="#999" stroke-width="1.5" stroke-linejoin="round"/><circle stroke="#999" stroke-width="1.5" cx="11.5" cy="11.5" r="3.75"/><path d="M12.18 11.5l.68-.68a.48.48 0 1 0-.68-.68l-.68.68-.68-.68a.48.48 0 1 0-.68.68l.68.68-.68.68a.48.48 0 1 0 .68.68l.68-.68.68.68a.48.48 0 0 0 .68 0 .48.48 0 0 0 0-.68l-.68-.68z" fill="#999" fill-rule="nonzero"/></g></svg>