<svg width="16" height="16" xmlns="http://www.w3.org/2000/svg"><path d="M14.973 5.439h-.539v9.505A1.07 1.07 0 0 1 13.357 16H3.124a1.07 1.07 0 0 1-1.077-1.056V5.439h-.97A1.07 1.07 0 0 1 0 4.383a1.07 1.07 0 0 1 1.077-1.056h3.716C4.955 1.479 6.463 0 8.294 0s3.393 1.479 3.501 3.327h3.124a1.07 1.07 0 0 1 1.077 1.056c.054.58-.431 1.056-1.023 1.056zm-6.679-3.75c-.97 0-1.723.687-1.831 1.638h3.716c-.161-.898-.915-1.637-1.885-1.637zm4.524 4.384c0-.264-.107-.476-.269-.581H3.932c-.162.105-.27.317-.27.58v7.763c0 .475.377.845.862.845h7.433c.484 0 .861-.37.861-.845V6.073zm-2.693.422h1.616v7.393h-1.616V6.495zm-2.693 0h1.616v7.393H7.432V6.495zm-2.692 0h1.615v7.393H4.74V6.495z" fill="#999" fill-rule="evenodd"/></svg>