<svg width="14" height="14" xmlns="http://www.w3.org/2000/svg"><path d="M12.18 7.7c0-.21.07-.42.07-.7 0-.28 0-.49-.07-.7l1.47-1.19c.14-.14.14-.28.07-.42l-1.4-2.45c-.07-.07-.21-.14-.42-.07l-1.75.7c-.35-.28-.77-.49-1.19-.7L8.68.35C8.75.14 8.54 0 8.4 0H5.6c-.14 0-.35.14-.35.28l-.28 1.89c-.42.14-.77.42-1.19.7l-1.68-.7c-.21-.07-.35 0-.49.14L.21 4.76c-.07.07 0 .28.14.42L1.82 6.3c0 .21-.07.42-.07.7 0 .28 0 .49.07.7L.35 8.89c-.14.14-.14.28-.07.42l1.4 2.45c.07.07.21.14.42.07l1.75-.7c.35.28.77.49 1.19.7l.28 1.82c0 .14.14.28.35.28h2.8c.14 0 .35-.14.35-.28l.28-1.82c.42-.21.84-.42 1.19-.7l1.75.7c.14.07.35 0 .42-.14l1.4-2.45c.07-.14.07-.35-.07-.42L12.18 7.7zM7 9.45C5.67 9.45 4.55 8.33 4.55 7S5.67 4.55 7 4.55 9.45 5.67 9.45 7 8.33 9.45 7 9.45z" fill="#D4D4D4" fill-rule="evenodd"/></svg>