<svg width="120" height="100" xmlns="http://www.w3.org/2000/svg"><g fill="none" fill-rule="evenodd"><path fill="#FFF" d="M0 0h120v100H0z"/><path d="M25 78h70v2H25v-2zm15 7h40v2H40v-2zm2-72h6v6h-6v-6zm10 0h6v6h-6v-6zm10 0h6v6h-6v-6zm10 0h6v6h-6v-6z" fill="#DEDEDE"/><path fill="#B3B3B3" d="M27 66h66v1H27z"/><path fill="#B3B3B3" d="M27 31h1v36h-1z"/><path fill="#91DAE5" d="M31 31.5h59V64H31z"/><path fill="#FAD291" d="M31 52l17-9 26 6 16-8v23H31z"/><g transform="translate(29 39)"><path stroke="#F6A623" stroke-linecap="round" stroke-linejoin="round" d="M2 13l17-9 26 6 16-8"/><circle fill="#F6A623" cx="2" cy="13" r="2"/><circle fill="#F6A623" cx="19" cy="4" r="2"/><circle fill="#F6A623" cx="45" cy="10" r="2"/><circle fill="#F6A623" cx="61" cy="2" r="2"/></g><g transform="translate(29 29)"><path stroke="#24B5CC" stroke-linecap="round" stroke-linejoin="round" d="M2 2.5h59"/><circle fill="#24B5CC" cx="26" cy="2.5" r="2"/><circle fill="#24B5CC" cx="40" cy="2.5" r="2"/><circle fill="#24B5CC" cx="10" cy="2.5" r="2"/><circle fill="#24B5CC" cx="2" cy="2.5" r="2"/><circle fill="#24B5CC" cx="61" cy="2.5" r="2"/></g></g></svg>